HIERARCHY
ROOT Hips
{
	OFFSET 0.000000 100.481300 0.000000
	CHANNELS 6 Xposition Yposition Zposition Xrotation Yrotation Zrotation
	JOINT Spine
	{
		OFFSET -0.279200 12.230698 -2.892100
		CHANNELS 3 Xrotation Yrotation Zrotation
		JOINT Spine1
		{
			OFFSET -0.325700 14.269203 -3.374200
			CHANNELS 3 Xrotation Yrotation Zrotation
			JOINT Spine2
			{
				OFFSET -0.372300 16.307602 -0.352600
				CHANNELS 3 Xrotation Yrotation Zrotation
				JOINT Neck
				{
					OFFSET -0.418800 17.814194 8.416900
					CHANNELS 3 Xrotation Yrotation Zrotation
					JOINT Head
					{
						OFFSET 0.000000 7.031097 3.806800
						CHANNELS 3 Xrotation Yrotation Zrotation
						JOINT HeadTop_End
						{
							OFFSET 0.000000 24.646606 12.978600
							CHANNELS 3 Xrotation Yrotation Zrotation
							End Site
							{
								OFFSET 0.000000 27.854965 0.000000
							}
						}
					}
				}
				JOINT LeftShoulder
				{
					OFFSET 16.952999 14.495407 -7.737500
					CHANNELS 3 Xrotation Yrotation Zrotation
					JOINT LeftArm
					{
						OFFSET 9.308998 -2.777710 0.208600
						CHANNELS 3 Xrotation Yrotation Zrotation
						JOINT LeftForeArm
						{
							OFFSET 29.972298 0.000000 0.000000
							CHANNELS 3 Xrotation Yrotation Zrotation
							JOINT LeftHand
							{
								OFFSET 26.026505 0.000000 0.000000
								CHANNELS 3 Xrotation Yrotation Zrotation
								JOINT LeftHandThumb1
								{
									OFFSET 12.240501 -7.147949 9.207150
									CHANNELS 3 Xrotation Yrotation Zrotation
									JOINT LeftHandThumb2
									{
										OFFSET 4.138618 -2.389435 2.389433
										CHANNELS 3 Xrotation Yrotation Zrotation
										JOINT LeftHandThumb3
										{
											OFFSET 2.726913 -1.574387 1.574386
											CHANNELS 3 Xrotation Yrotation Zrotation
											JOINT LeftHandThumb4
											{
												OFFSET 3.941010 -2.275345 2.275342
												CHANNELS 3 Xrotation Yrotation Zrotation
												End Site
												{
													OFFSET -0.005798 5.087799 0.009903
												}
											}
										}
									}
								}
								JOINT LeftHandIndex1
								{
									OFFSET 24.424698 -1.985611 5.953459
									CHANNELS 3 Xrotation Yrotation Zrotation
									JOINT LeftHandIndex2
									{
										OFFSET 6.426697 0.000000 0.000000
										CHANNELS 3 Xrotation Yrotation Zrotation
										JOINT LeftHandIndex3
										{
											OFFSET 5.337898 0.000000 0.000000
											CHANNELS 3 Xrotation Yrotation Zrotation
											JOINT LeftHandIndex4
											{
												OFFSET 4.409401 0.000000 0.000000
												CHANNELS 3 Xrotation Yrotation Zrotation
												End Site
												{
													OFFSET 0.000000 4.409363 0.014373
												}
											}
										}
									}
								}
								JOINT LeftHandMiddle1
								{
									OFFSET 23.810104 0.000000 0.000000
									CHANNELS 3 Xrotation Yrotation Zrotation
									JOINT LeftHandMiddle2
									{
										OFFSET 7.176498 0.000000 0.000000
										CHANNELS 3 Xrotation Yrotation Zrotation
										JOINT LeftHandMiddle3
										{
											OFFSET 6.774902 0.000000 0.000000
											CHANNELS 3 Xrotation Yrotation Zrotation
											JOINT LeftHandMiddle4
											{
												OFFSET 5.403328 0.000000 0.000000
												CHANNELS 3 Xrotation Yrotation Zrotation
												End Site
												{
													OFFSET -0.027702 5.403244 0.017414
												}
											}
										}
									}
								}
								JOINT LeftHandRing1
								{
									OFFSET 22.908401 -0.839279 -6.020567
									CHANNELS 3 Xrotation Yrotation Zrotation
									JOINT LeftHandRing2
									{
										OFFSET 6.337502 0.000000 0.000000
										CHANNELS 3 Xrotation Yrotation Zrotation
										JOINT LeftHandRing3
										{
											OFFSET 5.779297 0.000000 0.000000
											CHANNELS 3 Xrotation Yrotation Zrotation
											JOINT LeftHandRing4
											{
												OFFSET 4.965698 0.000000 0.000000
												CHANNELS 3 Xrotation Yrotation Zrotation
												End Site
												{
													OFFSET 0.000000 4.965668 0.016186
												}
											}
										}
									}
								}
								JOINT LeftHandPinky1
								{
									OFFSET 20.037003 -1.530319 -10.950146
									CHANNELS 3 Xrotation Yrotation Zrotation
									JOINT LeftHandPinky2
									{
										OFFSET 5.254700 0.000000 0.000000
										CHANNELS 3 Xrotation Yrotation Zrotation
										JOINT LeftHandPinky3
										{
											OFFSET 4.810204 0.000000 0.000000
											CHANNELS 3 Xrotation Yrotation Zrotation
											JOINT LeftHandPinky4
											{
												OFFSET 3.647202 0.000000 0.000000
												CHANNELS 3 Xrotation Yrotation Zrotation
												End Site
												{
													OFFSET 0.000000 3.647186 0.011889
												}
											}
										}
									}
								}
							}
						}
					}
				}
				JOINT RightShoulder
				{
					OFFSET -15.141001 14.495407 -7.737500
					CHANNELS 3 Xrotation Yrotation Zrotation
					JOINT RightArm
					{
						OFFSET -9.308998 -2.777710 0.208500
						CHANNELS 3 Xrotation Yrotation Zrotation
						JOINT RightForeArm
						{
							OFFSET -29.972300 0.000000 0.000000
							CHANNELS 3 Xrotation Yrotation Zrotation
							JOINT RightHand
							{
								OFFSET -26.026505 0.000000 0.000000
								CHANNELS 3 Xrotation Yrotation Zrotation
								JOINT RightHandThumb1
								{
									OFFSET -12.240601 -7.148026 9.207092
									CHANNELS 3 Xrotation Yrotation Zrotation
									JOINT RightHandThumb2
									{
										OFFSET -4.138618 -2.389435 2.389433
										CHANNELS 3 Xrotation Yrotation Zrotation
										JOINT RightHandThumb3
										{
											OFFSET -2.726974 -1.574417 1.574421
											CHANNELS 3 Xrotation Yrotation Zrotation
											JOINT RightHandThumb4
											{
												OFFSET -3.941010 -2.275345 2.275343
												CHANNELS 3 Xrotation Yrotation Zrotation
												End Site
												{
													OFFSET 0.005814 5.087799 0.009927
												}
											}
										}
									}
								}
								JOINT RightHandIndex1
								{
									OFFSET -24.424698 -1.985657 5.953444
									CHANNELS 3 Xrotation Yrotation Zrotation
									JOINT RightHandIndex2
									{
										OFFSET -6.426697 0.000000 0.000000
										CHANNELS 3 Xrotation Yrotation Zrotation
										JOINT RightHandIndex3
										{
											OFFSET -5.337898 0.000000 0.000000
											CHANNELS 3 Xrotation Yrotation Zrotation
											JOINT RightHandIndex4
											{
												OFFSET -4.409401 0.000000 0.000000
												CHANNELS 3 Xrotation Yrotation Zrotation
												End Site
												{
													OFFSET 0.000000 4.409363 0.014408
												}
											}
										}
									}
								}
								JOINT RightHandMiddle1
								{
									OFFSET -23.810097 0.000000 0.000000
									CHANNELS 3 Xrotation Yrotation Zrotation
									JOINT RightHandMiddle2
									{
										OFFSET -7.176498 0.000000 0.000000
										CHANNELS 3 Xrotation Yrotation Zrotation
										JOINT RightHandMiddle3
										{
											OFFSET -6.774902 0.000000 0.000000
											CHANNELS 3 Xrotation Yrotation Zrotation
											JOINT RightHandMiddle4
											{
												OFFSET -5.403328 0.000000 0.000000
												CHANNELS 3 Xrotation Yrotation Zrotation
												End Site
												{
													OFFSET 0.027702 5.403244 0.017457
												}
											}
										}
									}
								}
								JOINT RightHandRing1
								{
									OFFSET -22.908302 -0.839325 -6.020576
									CHANNELS 3 Xrotation Yrotation Zrotation
									JOINT RightHandRing2
									{
										OFFSET -6.337502 0.000000 0.000000
										CHANNELS 3 Xrotation Yrotation Zrotation
										JOINT RightHandRing3
										{
											OFFSET -5.779297 0.000000 0.000000
											CHANNELS 3 Xrotation Yrotation Zrotation
											JOINT RightHandRing4
											{
												OFFSET -4.965698 0.000000 0.000000
												CHANNELS 3 Xrotation Yrotation Zrotation
												End Site
												{
													OFFSET 0.000000 4.965668 0.016226
												}
											}
										}
									}
								}
								JOINT RightHandPinky1
								{
									OFFSET -20.037003 -1.530334 -10.950259
									CHANNELS 3 Xrotation Yrotation Zrotation
									JOINT RightHandPinky2
									{
										OFFSET -5.254700 0.000000 0.000000
										CHANNELS 3 Xrotation Yrotation Zrotation
										JOINT RightHandPinky3
										{
											OFFSET -4.810204 0.000000 0.000000
											CHANNELS 3 Xrotation Yrotation Zrotation
											JOINT RightHandPinky4
											{
												OFFSET -3.647202 0.000000 0.000000
												CHANNELS 3 Xrotation Yrotation Zrotation
												End Site
												{
													OFFSET 0.000000 3.647186 0.011917
												}
											}
										}
									}
								}
							}
						}
					}
				}
			}
		}
	}
	JOINT LeftUpLeg
	{
		OFFSET 15.427100 -6.655098 0.678600
		CHANNELS 3 Xrotation Yrotation Zrotation
		JOINT LeftLeg
		{
			OFFSET 4.081073 -39.591068 13.024000
			CHANNELS 3 Xrotation Yrotation Zrotation
			JOINT LeftFoot
			{
				OFFSET -4.081074 -37.707932 -15.979700
				CHANNELS 3 Xrotation Yrotation Zrotation
				JOINT LeftToeBase
				{
					OFFSET 5.346399 -15.068900 20.645000
					CHANNELS 3 Xrotation Yrotation Zrotation
					JOINT LeftToe_End
					{
						OFFSET 2.754700 0.931300 11.300900
						CHANNELS 3 Xrotation Yrotation Zrotation
						End Site
						{
							OFFSET 0.000000 11.669021 0.000000
						}
					}
				}
			}
		}
	}
	JOINT RightUpLeg
	{
		OFFSET -15.569500 -6.655098 0.678600
		CHANNELS 3 Xrotation Yrotation Zrotation
		JOINT RightLeg
		{
			OFFSET -4.081825 -39.591045 13.023800
			CHANNELS 3 Xrotation Yrotation Zrotation
			JOINT RightFoot
			{
				OFFSET 4.081824 -37.707954 -15.979600
				CHANNELS 3 Xrotation Yrotation Zrotation
				JOINT RightToeBase
				{
					OFFSET -5.346400 -15.068900 20.645000
					CHANNELS 3 Xrotation Yrotation Zrotation
					JOINT RightToe_End
					{
						OFFSET -2.754700 0.931300 11.300900
						CHANNELS 3 Xrotation Yrotation Zrotation
						End Site
						{
							OFFSET 0.000000 11.669021 0.000000
						}
					}
				}
			}
		}
	}
}
MOTION
Frames: 4
Frame Time: 0.033333
-9.457192 97.569946 -11.845745 5.493559 -7.025181 1.470510 11.315866 4.120074 2.456434 2.189431 0.565558 -0.359653 2.186422 0.539512 -0.358307 4.262751 -0.582073 -1.029011 10.269881 -3.753086 -2.591617 0.000002 0.000000 -0.000000 1.039553 -8.058242 2.795731 29.460710 -34.497704 -58.798769 -0.000003 -41.863811 -0.000014 14.607323 -3.746397 -5.133655 -1.540041 3.690170 6.142344 3.939050 7.948715 0.746814 -0.579466 1.575015 2.538721 -0.000001 0.000001 0.000000 0.336691 2.130756 -17.956991 0.559627 2.723739 -23.216914 0.363288 2.211055 -18.658779 0.000001 -0.000000 0.000000 0.071493 0.991670 -8.246682 0.783887 3.195666 -27.558177 0.363277 2.211050 -18.658767 -0.000000 -0.000001 -0.000000 0.186729 1.595794 -13.347260 0.667423 2.962166 -25.390303 0.363284 2.211056 -18.658757 -0.000001 0.000000 -0.000000 0.630349 4.998363 -7.691421 0.671864 -1.104251 -25.794010 0.363288 2.211039 -18.658779 0.000001 -0.000002 -0.000002 0.680041 4.734060 -4.361605 -6.859642 26.001487 41.592150 0.000012 62.346308 -0.000009 10.869003 5.637894 -5.794281 -1.849255 -3.581808 -6.586147 4.637209 -8.634122 -0.225408 -1.273758 0.137315 -2.094869 -0.000000 0.000001 0.000001 0.043140 -0.774944 6.372421 0.232970 -1.788268 14.844228 0.043141 -0.774945 6.372413 -0.000001 -0.000000 -0.000000 0.043141 -0.774944 6.372422 0.232975 -1.788269 14.844223 0.043139 -0.774944 6.372417 0.000002 -0.000002 0.000002 0.043137 -0.774942 6.372421 0.232976 -1.788270 14.844223 0.043146 -0.774942 6.372411 0.000002 0.000001 0.000000 0.043140 -0.774944 6.372422 0.232974 -1.788271 14.844223 0.043144 -0.774940 6.372409 0.000000 -0.000002 -0.000001 -31.148965 17.473644 2.596959 23.794981 6.601596 -2.723927 -1.432656 -3.406167 -2.952801 -6.507238 -0.000003 -0.000000 0.000000 -0.000000 -0.000001 -11.483597 -2.214219 -1.451332 22.901203 -10.049482 -3.752814 -4.452079 12.453546 4.445216 -14.342759 -0.000003 0.000001 0.000000 0.000000 0.000000 
-10.281255 97.264694 -12.131831 4.312788 -5.740178 1.634529 10.194522 3.959585 2.015076 2.193523 0.600760 -0.422423 2.194509 0.570195 -0.416779 4.795943 -0.693094 -1.756498 11.471840 -5.402600 -1.974529 0.000002 0.000000 0.000000 1.064584 -7.994240 3.525056 29.869151 -31.581374 -61.774471 0.000018 -49.601418 0.000002 15.191628 -2.189300 -4.030616 -1.540035 3.690196 6.142355 3.939048 7.948688 0.746798 -0.579471 1.575009 2.538736 0.000001 0.000000 0.000000 0.352504 2.178871 -18.377189 0.524789 2.641153 -22.472760 0.334732 2.124683 -17.903907 -0.000001 -0.000000 0.000000 0.077113 1.029652 -8.564808 0.711046 3.052229 -26.221644 0.334730 2.124688 -17.903915 0.000001 0.000000 -0.000002 0.177295 1.555527 -13.004318 0.621228 2.862901 -24.480928 0.334730 2.124691 -17.903919 -0.000000 0.000001 0.000003 0.657483 5.032148 -8.001735 0.661517 -1.125740 -25.596744 0.334733 2.124681 -17.903913 -0.000002 -0.000000 0.000001 0.527381 3.551277 -5.441519 -3.820564 28.616025 35.615533 -0.000007 59.146167 -0.000003 10.567483 6.118433 -4.362051 -1.849251 -3.581791 -6.586139 4.637200 -8.634109 -0.225403 -1.273759 0.137325 -2.094868 -0.000000 -0.000000 0.000001 0.047438 -0.812473 6.682477 0.259414 -1.885172 15.669139 0.047431 -0.812471 6.682464 -0.000001 0.000001 -0.000000 0.047439 -0.812474 6.682474 0.259415 -1.885172 15.669135 0.047438 -0.812472 6.682464 -0.000001 -0.000001 -0.000001 0.047438 -0.812473 6.682473 0.259417 -1.885175 15.669144 0.047432 -0.812471 6.682463 0.000000 0.000001 -0.000002 0.047438 -0.812473 6.682474 0.259416 -1.885174 15.669137 0.047433 -0.812472 6.682463 0.000001 -0.000002 -0.000002 -27.573069 18.511068 0.282266 12.996776 6.608641 -2.526801 -5.164221 -4.505176 -2.848547 -6.128961 0.000003 0.000008 -0.000000 0.000000 -0.000000 -6.208540 -3.424546 -1.740940 20.350730 -7.676380 -3.135117 -8.514238 12.211040 3.779127 -17.501264 0.000001 0.000001 0.000000 -0.000000 -0.000000 
-10.856536 95.317619 -12.282354 3.283951 -5.504479 0.893318 10.620070 4.897637 3.229704 1.719227 0.727825 -0.891516 1.732054 0.690042 -0.887820 5.305817 -0.865875 -2.124602 11.451038 -6.776608 -1.614407 -0.000001 0.000001 -0.000000 0.921652 -6.832966 3.481699 28.942974 -30.687022 -63.382147 -0.000006 -54.917538 -0.000010 12.255454 1.450992 -1.760861 -1.540028 3.690181 6.142348 3.939041 7.948709 0.746813 -0.579465 1.574986 2.538703 0.000001 0.000000 0.000001 0.317514 2.070691 -17.433786 0.436240 2.416199 -20.465847 0.278634 1.942605 -16.323249 0.000002 0.000001 -0.000002 0.071417 0.991174 -8.242464 0.574109 2.757208 -23.519968 0.278630 1.942611 -16.323247 -0.000003 -0.000001 -0.000000 0.148739 1.426298 -11.906785 0.512828 2.612071 -22.211854 0.278625 1.942632 -16.323230 0.000001 0.000003 -0.000002 0.628206 4.995682 -7.666879 0.579698 -1.302877 -23.981610 0.278635 1.942597 -16.323254 -0.000000 -0.000001 -0.000003 0.301175 1.899218 -5.838847 -2.416119 32.074008 30.733775 -0.000010 52.229562 0.000005 11.962587 8.283140 -2.390006 -1.849245 -3.581781 -6.586138 4.637201 -8.634134 -0.225405 -1.273757 0.137324 -2.094869 -0.000000 -0.000001 0.000003 0.050761 -0.840313 6.912615 0.296281 -2.011874 16.753327 0.050753 -0.840323 6.912623 0.000001 0.000000 -0.000003 0.050761 -0.840312 6.912611 0.296281 -2.011876 16.753325 0.050756 -0.840317 6.912629 0.000000 0.000001 -0.000001 0.050762 -0.840316 6.912619 0.296283 -2.011873 16.753332 0.050754 -0.840323 6.912624 0.000000 0.000001 -0.000002 0.050761 -0.840313 6.912611 0.296282 -2.011879 16.753327 0.050754 -0.840323 6.912624 -0.000001 0.000001 -0.000000 -29.785427 17.669144 0.139283 15.278886 7.953321 -2.917975 -11.053103 -4.458975 3.192649 -5.985569 0.000008 -0.000001 -0.000001 0.000001 -0.000000 -3.310682 -5.147060 -1.327414 19.430922 -4.493247 -0.912857 -14.200225 11.059231 2.088849 -13.480943 -0.000003 -0.000001 0.000001 0.000000 -0.000000 
-11.328291 92.955788 -12.513851 2.949151 -5.847437 0.456661 11.822721 6.407851 4.131525 1.273217 0.925716 -0.893444 1.293739 0.888454 -0.895496 4.878149 -1.019957 -2.899887 10.750913 -8.412221 -2.208435 -0.000003 0.000000 -0.000000 0.675015 -4.854070 2.082691 25.677478 -32.196996 -64.131542 -0.000012 -57.608800 -0.000031 10.055947 2.967764 1.004301 -1.540044 3.690183 6.142340 3.939053 7.948732 0.746831 -0.579466 1.575004 2.538714 -0.000004 0.000000 0.000000 0.294608 1.996314 -16.788151 0.361693 2.206372 -18.617622 0.229918 1.767856 -14.818456 0.000000 -0.000001 -0.000001 0.068503 0.970876 -8.072489 0.456247 2.469115 -20.935367 0.229917 1.767875 -14.818456 0.000002 -0.000001 0.000000 0.125056 1.308970 -10.914388 0.421080 2.375171 -20.102611 0.229907 1.767855 -14.818471 0.000001 0.000000 0.000001 0.612364 4.975754 -7.484445 0.514159 -1.455059 -22.610315 0.229916 1.767873 -14.818445 -0.000003 -0.000003 -0.000002 0.047676 0.123438 -5.943847 -4.399447 35.437880 29.554826 -0.000006 42.679376 -0.000009 13.283600 10.662333 -0.803437 -1.849246 -3.581794 -6.586146 4.637206 -8.634107 -0.225398 -1.273753 0.137321 -2.094873 -0.000000 0.000001 0.000000 0.056172 -0.883855 7.272682 0.337672 -2.144514 17.894773 0.056193 -0.883853 7.272692 -0.000000 0.000000 -0.000002 0.056172 -0.883854 7.272682 0.337672 -2.144515 17.894775 0.056192 -0.883857 7.272691 0.000000 -0.000000 0.000000 0.056173 -0.883847 7.272685 0.337671 -2.144523 17.894773 0.056194 -0.883853 7.272690 0.000000 0.000001 -0.000002 0.056172 -0.883855 7.272682 0.337673 -2.144518 17.894773 0.056193 -0.883852 7.272689 -0.000000 -0.000000 -0.000002 -32.612282 16.768031 0.206286 18.974247 10.083432 -2.150907 -10.383539 -3.836985 7.465763 -6.533598 -0.000011 0.000000 0.000003 0.000001 0.000000 -3.859688 -5.692336 -1.075390 22.574801 -2.465839 0.997755 -18.399927 9.056338 0.298966 -10.364523 -0.000003 -0.000002 0.000000 -0.000000 -0.000000 
